<?xml version="1.0" encoding="UTF-8"?>
<svg version="1.1" xmlns="http://www.w3.org/2000/svg" width="440" height="363">
<path d="M0 0 C5.35246255 4.84270421 9.16280818 9.56365891 9.86328125 16.85546875 C10.06860238 24.34428679 9.09731363 30.35766499 4.08203125 36.16015625 C-1.49375131 41.35316197 -7.61626667 43.78362251 -15.26757812 43.65307617 C-17.375 43.375 -17.375 43.375 -19.59179688 42.55981445 C-22.3954267 41.59081133 -24.40118152 41.17834682 -27.375 41.375 C-31.571471 44.05037432 -34.69338661 47.56128907 -38 51.25 C-38.91510244 52.22535344 -39.833051 53.19804483 -40.75390625 54.16796875 C-42.99031764 56.54562717 -45.19411348 58.94650191 -47.375 61.375 C-46.3877749 65.61491246 -46.3877749 65.61491246 -43.5 68.5 C-42.79875 68.78875 -42.0975 69.0775 -41.375 69.375 C-39.125 71.375 -39.125 71.375 -37.375 73.375 C-37.375 74.035 -37.375 74.695 -37.375 75.375 C-34.28690305 77.13962683 -33.14187864 77.375 -29.375 77.375 C-26.97984183 75.18016415 -24.92523525 72.78940361 -22.7890625 70.34375 C-20.375 68.375 -20.375 68.375 -17.0859375 68.09375 C-16.19132813 68.1865625 -15.29671875 68.279375 -14.375 68.375 C-12.90657122 74.61582232 -12.90657122 74.61582232 -15.1875 78.3125 C-17.375 80.375 -17.375 80.375 -19.375 80.375 C-19.375 81.035 -19.375 81.695 -19.375 82.375 C-20.035 82.375 -20.695 82.375 -21.375 82.375 C-21.375 83.035 -21.375 83.695 -21.375 84.375 C-22.035 84.375 -22.695 84.375 -23.375 84.375 C-22.79915568 86.76064077 -22.15272405 89.04182784 -21.375 91.375 C-20.05092331 92.05986725 -18.71590759 92.72370203 -17.375 93.375 C-15.125 95.375 -15.125 95.375 -13.375 97.375 C-13.375 98.035 -13.375 98.695 -13.375 99.375 C-12.776875 99.66375 -12.17875 99.9525 -11.5625 100.25 C-9.375 101.375 -9.375 101.375 -6.375 103.375 C-5.99988281 102.92769531 -5.62476563 102.48039062 -5.23828125 102.01953125 C-1.36047374 97.43844379 2.51225352 93.03501509 7.25 89.3125 C9.68171298 87.48736392 9.68171298 87.48736392 11.3125 85.125 C11.745625 84.5475 12.17875 83.97 12.625 83.375 C13.285 83.375 13.945 83.375 14.625 83.375 C14.10231534 80.61223823 13.51630413 78.0489124 12.625 75.375 C12.11676429 68.14241493 11.80999895 61.68948449 15.625 55.375 C18.0625 52.625 18.0625 52.625 20.625 50.375 C21.49125 49.5396875 21.49125 49.5396875 22.375 48.6875 C28.80017389 44.93948189 36.51178983 44.59956107 43.625 46.375 C50.22564149 49.31745464 54.57818862 53.56085205 57.375 60.25 C59.79088252 67.35163269 58.75842792 73.69429518 55.625 80.375 C52.24154959 85.74003507 47.8284527 89.74096751 41.625 91.375 C34.33182096 92.03422328 28.61126108 91.70375369 21.625 89.375 C14.695 96.305 7.765 103.235 0.625 110.375 C2.49034099 115.52440771 2.49034099 115.52440771 6.625 117.375 C8.875 119.375 8.875 119.375 10.625 121.375 C10.625 122.035 10.625 122.695 10.625 123.375 C11.49125 123.74625 11.49125 123.74625 12.375 124.125 C14.95439979 125.55799988 16.68621592 127.15924676 18.625 129.375 C18.625 130.035 18.625 130.695 18.625 131.375 C22.06992761 129.60034032 24.46137714 127.56499296 27.0625 124.75 C29.50526038 122.22190301 30.46685079 121.42274316 33.9375 120.375 C36.625 120.375 36.625 120.375 38.625 121.375 C39.08501702 124.51844966 39.11359148 126.6194928 37.359375 129.33203125 C35.84893893 131.13208978 34.39351892 132.82640053 32.625 134.375 C31.965 134.375 31.305 134.375 30.625 134.375 C29.965 136.025 29.305 137.675 28.625 139.375 C29.50865234 140.26251953 29.50865234 140.26251953 30.41015625 141.16796875 C31.53744141 142.35326172 31.53744141 142.35326172 32.6875 143.5625 C33.44160156 144.33980469 34.19570313 145.11710938 34.97265625 145.91796875 C36.625 148.375 36.625 148.375 36.5390625 151.02734375 C35.42144739 153.89779965 33.71606287 155.1591098 31.30078125 156.9921875 C29.49737836 158.48031016 28.10666291 160.06885683 26.625 161.875 C23.92548237 165.13838555 20.88668256 167.66849745 17.625 170.375 C16.820625 171.344375 16.01625 172.31375 15.1875 173.3125 C12.74574072 176.23070012 10.25152837 178.50324562 7.33984375 180.91796875 C4.95782042 182.94187468 2.80113568 185.13292081 0.625 187.375 C3.04771873 193.00954697 7.74324333 196.90240693 12 201.1875 C12.86367188 202.08404297 13.72734375 202.98058594 14.6171875 203.90429688 C15.87015625 205.16790039 15.87015625 205.16790039 17.1484375 206.45703125 C17.91075684 207.23280518 18.67307617 208.0085791 19.45849609 208.80786133 C21.47509901 210.63261822 21.47509901 210.63261822 23.78662109 210.15380859 C24.39328613 209.89680176 24.99995117 209.63979492 25.625 209.375 C32.11555343 207.51097743 39.75878688 207.11811029 46 209.9375 C51.13027617 212.9301611 54.38490559 217.51485839 57.625 222.375 C59.3686036 231.1061278 58.70553458 238.32292329 54.0625 245.9375 C53.588125 246.411875 53.11375 246.88625 52.625 247.375 C51.965 247.375 51.305 247.375 50.625 247.375 C50.295 248.365 49.965 249.355 49.625 250.375 C43.63459572 253.68884067 36.96287599 255.2686987 30.16015625 253.8671875 C27.90874335 253.15542635 25.78261854 252.33155852 23.625 251.375 C22.7175 250.983125 21.81 250.59125 20.875 250.1875 C16.78512752 246.89288051 14.27184929 242.31554787 12.625 237.375 C12.50483672 235.23162235 12.44968336 233.08420876 12.4375 230.9375 C12.42332031 229.80441406 12.40914063 228.67132813 12.39453125 227.50390625 C12.62034217 224.43823593 13.28393532 223.04015386 14.625 220.375 C14.25462577 216.33987019 12.0190289 214.40903014 9.22265625 211.64453125 C8.33255859 210.75958984 7.44246094 209.87464844 6.52539062 208.96289062 C5.58888672 208.04701172 4.65238281 207.13113281 3.6875 206.1875 C2.28854492 204.7962793 2.28854492 204.7962793 0.86132812 203.37695312 C-3.36972223 198.86201305 -3.36972223 198.86201305 -8.375 195.375 C-8.375 196.035 -8.375 196.695 -8.375 197.375 C-9.765625 198.70703125 -9.765625 198.70703125 -11.625 200.1875 C-13.83938569 202.01658258 -15.56881041 203.61726301 -17.375 205.875 C-19.09435167 208.02418959 -20.64963839 209.51651378 -22.75 211.25 C-25.22491191 213.30365031 -27.3304593 215.39312439 -29.375 217.875 C-31.91640518 220.96002126 -34.70303982 223.42822631 -37.77734375 225.96875 C-39.94874498 227.88000781 -41.62391948 230.0804807 -43.375 232.375 C-44.68994512 233.72647138 -46.01764858 235.06612542 -47.375 236.375 C-45.86123919 239.94264285 -43.76986871 242.21206287 -41.0234375 244.921875 C-40.17265625 245.76621094 -39.321875 246.61054688 -38.4453125 247.48046875 C-37.55585938 248.35316406 -36.66640625 249.22585938 -35.75 250.125 C-34.8528125 251.01316406 -33.955625 251.90132812 -33.03125 252.81640625 C-30.81692996 255.00716969 -28.59807565 257.19312763 -26.375 259.375 C-25.47116577 259.05668213 -25.47116577 259.05668213 -24.54907227 258.73193359 C-23.75041748 258.45687988 -22.9517627 258.18182617 -22.12890625 257.8984375 C-21.3407251 257.62435059 -20.55254395 257.35026367 -19.74047852 257.06787109 C-13.2808564 255.17578651 -7.25167394 256.26589795 -1.375 259.375 C4.45780821 263.08138729 7.86373651 267.6759085 9.625 274.375 C10.61782473 282.39657253 9.40741154 288.034438 5.0625 294.8125 C4.588125 295.328125 4.11375 295.84375 3.625 296.375 C2.965 296.375 2.305 296.375 1.625 296.375 C1.625 297.035 1.625 297.695 1.625 298.375 C-4.96682195 302.95265413 -11.54771695 302.9502334 -19.375 302.375 C-24.61041044 301.08977289 -29.43751711 298.16706288 -32.53515625 293.703125 C-35.37982893 288.93141599 -36.51878643 285.11542435 -36.5625 279.625 C-36.57667969 278.82578125 -36.59085938 278.0265625 -36.60546875 277.203125 C-36.375 274.375 -36.375 274.375 -34.7265625 270.734375 C-34.0512921 268.64879783 -34.0512921 268.64879783 -34.375 266.375 C-36.82917511 262.72973282 -39.81983991 259.78567317 -43.03149414 256.79931641 C-44.56341734 255.37414659 -46.05750641 253.91671273 -47.54882812 252.44921875 C-52.2055759 247.25934301 -52.2055759 247.25934301 -58.375 245.375 C-58.58125 245.931875 -58.7875 246.48875 -59 247.0625 C-60.53470284 249.64359114 -62.40172682 251.11658703 -64.73828125 252.9609375 C-66.4709289 254.4578789 -67.85991429 256.04447342 -69.3125 257.8125 C-71.88226966 260.92185384 -74.68940288 263.41782939 -77.79296875 265.98046875 C-79.54558989 267.44300919 -79.54558989 267.44300919 -81.3125 269.8125 C-84.25823314 273.47235026 -87.80747016 276.33810961 -91.375 279.375 C-91.705 279.705 -92.035 280.035 -92.375 280.375 C-95.90501029 280.86527921 -97.17134654 280.51076897 -100.1875 278.5 C-100.909375 277.79875 -101.63125 277.0975 -102.375 276.375 C-102.375 275.715 -102.375 275.055 -102.375 274.375 C-103.035 274.375 -103.695 274.375 -104.375 274.375 C-104.375 273.715 -104.375 273.055 -104.375 272.375 C-108.38732741 274.49261724 -110.59777079 276.8316386 -113.375 280.375 C-114.035 280.375 -114.695 280.375 -115.375 280.375 C-115.375 281.035 -115.375 281.695 -115.375 282.375 C-118.75 283 -118.75 283 -122.375 283.375 C-123.035 282.715 -123.695 282.055 -124.375 281.375 C-124.04223549 275.27431741 -124.04223549 275.27431741 -121.9375 272.4375 C-120.375 271.375 -120.375 271.375 -118.375 271.375 C-118.08625 270.7975 -117.7975 270.22 -117.5 269.625 C-116.45833333 267.54166667 -115.41666667 265.45833333 -114.375 263.375 C-115.24125 262.694375 -116.1075 262.01375 -117 261.3125 C-119.36755901 259.34969933 -121.35718726 257.30917313 -123.3125 254.9375 C-126.32147682 251.29799489 -129.72867419 248.3548197 -133.375 245.375 C-138.54572715 249.73106831 -143.52619832 254.22575022 -148.375 258.9375 C-149.06722656 259.58396484 -149.75945312 260.23042969 -150.47265625 260.89648438 C-151.12105469 261.53005859 -151.76945312 262.16363281 -152.4375 262.81640625 C-153.02660156 263.38045166 -153.61570312 263.94449707 -154.22265625 264.52563477 C-155.6357403 266.37400786 -155.6357403 266.37400786 -155.12109375 268.90991211 C-154.56709271 270.7403272 -153.97975917 272.56072248 -153.375 274.375 C-152.97176302 280.34853387 -152.96247522 285.79603644 -155.375 291.375 C-156.035 291.375 -156.695 291.375 -157.375 291.375 C-157.560625 292.096875 -157.74625 292.81875 -157.9375 293.5625 C-160.09568743 297.78504063 -163.75332084 300.51189575 -168.2734375 302 C-175.4871448 303.28720428 -182.9181602 303.06041084 -189.375 299.375 C-194.3805323 295.16580238 -198.75231917 290.06881894 -199.375 283.375 C-199.43816406 282.71628906 -199.50132812 282.05757813 -199.56640625 281.37890625 C-199.94428266 274.34552929 -198.2644765 268.66561858 -193.57421875 263.32421875 C-188.35412944 258.42848451 -183.4954312 256.38396716 -176.3125 256.125 C-172.58187367 256.36186516 -169.88309378 257.20563541 -166.375 258.375 C-161.87882179 258.03172409 -159.86456515 256.36820304 -156.73046875 253.2265625 C-155.88935547 252.38609375 -155.04824219 251.545625 -154.18164062 250.6796875 C-153.31732422 249.79539062 -152.45300781 248.91109375 -151.5625 248 C-150.67884766 247.1234375 -149.79519531 246.246875 -148.88476562 245.34375 C-144.02130899 241.10462596 -144.02130899 241.10462596 -142.375 235.375 C-143.70969332 233.93601648 -143.70969332 233.93601648 -145.5 232.625 C-148.76393795 229.98213527 -151.39268724 227.1619294 -154.015625 223.890625 C-155.4938998 222.11587049 -155.4938998 222.11587049 -158.375 220.375 C-159.02726562 221.08527344 -159.67953125 221.79554688 -160.3515625 222.52734375 C-161.22554688 223.44644531 -162.09953125 224.36554688 -163 225.3125 C-163.85851562 226.22902344 -164.71703125 227.14554688 -165.6015625 228.08984375 C-168.67740763 230.62416685 -170.41839327 231.29187801 -174.375 231.375 C-176.375 229.375 -176.375 229.375 -176.8125 227.125 C-176.1627789 223.04103882 -174.24994038 221.31839134 -171.375 218.375 C-170.715 218.375 -170.055 218.375 -169.375 218.375 C-169.045 217.385 -168.715 216.395 -168.375 215.375 C-167.715 215.375 -167.055 215.375 -166.375 215.375 C-165.92734311 211.54130246 -165.92734311 211.54130246 -167.6953125 209.91796875 C-168.29085937 209.47066406 -168.88640625 209.02335938 -169.5 208.5625 C-172.82074189 205.92207237 -175.45600974 203.0908975 -178.11328125 199.79296875 C-179.33979293 198.2380558 -179.33979293 198.2380558 -181.375 197.375 C-181.375 196.715 -181.375 196.055 -181.375 195.375 C-182.035 195.375 -182.695 195.375 -183.375 195.375 C-183.601875 195.9525 -183.82875 196.53 -184.0625 197.125 C-185.71900513 199.96472308 -187.80067988 201.32724536 -190.375 203.375 C-191.93341142 205.08925256 -193.41186632 206.85675854 -194.89453125 208.63671875 C-196.92398778 211.01958987 -199.13282003 213.19341949 -201.375 215.375 C-201.973125 215.973125 -202.57125 216.57125 -203.1875 217.1875 C-203.579375 217.579375 -203.97125 217.97125 -204.375 218.375 C-203.89353516 219.64923828 -203.89353516 219.64923828 -203.40234375 220.94921875 C-201.22590663 228.20676762 -200.93515155 236.5710537 -204.4375 243.4375 C-207.65955447 248.36696795 -211.75153434 251.50051145 -217.375 253.375 C-233.79211582 254.83224961 -233.79211582 254.83224961 -240.60546875 249.26953125 C-245.59317128 243.92949653 -248.13632885 238.24075698 -248.5 230.921875 C-248.18311577 224.4653589 -246.57925634 219.21278382 -242.125 214.4375 C-235.91969959 208.96754704 -230.30906916 208.04278934 -222.2421875 208.07421875 C-219.375 208.375 -219.375 208.375 -216.7578125 209.45703125 C-213.91798333 210.5510638 -213.17653344 210.46034754 -210.375 209.375 C-207.98816168 207.43462247 -207.98816168 207.43462247 -205.609375 204.97265625 C-204.71992188 204.08255859 -203.83046875 203.19246094 -202.9140625 202.27539062 C-201.99367187 201.33888672 -201.07328125 200.40238281 -200.125 199.4375 C-199.18026206 198.49486651 -198.23495548 197.55280257 -197.2890625 196.61132812 C-192.53286879 192.62583711 -192.53286879 192.62583711 -190.375 187.375 C-191.73361181 186.03713638 -191.73361181 186.03713638 -193.5 184.6875 C-196.77689265 181.98888252 -199.45399433 179.09339881 -202.11328125 175.79296875 C-203.33979293 174.2380558 -203.33979293 174.2380558 -205.375 173.375 C-205.375 172.715 -205.375 172.055 -205.375 171.375 C-206.035 171.375 -206.695 171.375 -207.375 171.375 C-209 169.875 -209 169.875 -210.375 168.375 C-211.31472656 169.33212891 -211.31472656 169.33212891 -212.2734375 170.30859375 C-213.49933594 171.54802734 -213.49933594 171.54802734 -214.75 172.8125 C-215.56210938 173.63621094 -216.37421875 174.45992187 -217.2109375 175.30859375 C-219.90750907 177.88347888 -220.69194512 178.34712021 -224.4375 178.5 C-227.375 178.375 -227.375 178.375 -228.375 177.375 C-228.41580783 175.37541636 -228.41754356 173.37454746 -228.375 171.375 C-227.715 171.375 -227.055 171.375 -226.375 171.375 C-226.1275 170.7975 -225.88 170.22 -225.625 169.625 C-224.19200012 167.04560021 -222.59075324 165.31378408 -220.375 163.375 C-219.715 163.375 -219.055 163.375 -218.375 163.375 C-218.375 161.725 -218.375 160.075 -218.375 158.375 C-219.695 157.715 -221.015 157.055 -222.375 156.375 C-222.375 155.715 -222.375 155.055 -222.375 154.375 C-223.365 154.045 -224.355 153.715 -225.375 153.375 C-226.1875 151.5625 -226.1875 151.5625 -226.375 149.375 C-225.4375 147.125 -225.4375 147.125 -224.375 145.375 C-223.715 145.375 -223.055 145.375 -222.375 145.375 C-222.1275 144.7975 -221.88 144.22 -221.625 143.625 C-220.19200012 141.04560021 -218.59075324 139.31378408 -216.375 137.375 C-215.715 137.375 -215.055 137.375 -214.375 137.375 C-214.1275 136.7975 -213.88 136.22 -213.625 135.625 C-212.19200012 133.04560021 -210.59075324 131.31378408 -208.375 129.375 C-207.715 129.375 -207.055 129.375 -206.375 129.375 C-206.1275 128.7975 -205.88 128.22 -205.625 127.625 C-204.19200012 125.04560021 -202.59075324 123.31378408 -200.375 121.375 C-199.715 121.375 -199.055 121.375 -198.375 121.375 C-198.1275 120.7975 -197.88 120.22 -197.625 119.625 C-196.19200012 117.04560021 -194.59075324 115.31378408 -192.375 113.375 C-191.715 113.375 -191.055 113.375 -190.375 113.375 C-192.02009603 110.34455994 -193.60661503 108.14338497 -196.0625 105.6875 C-196.825625 104.924375 -197.58875 104.16125 -198.375 103.375 C-198.375 102.715 -198.375 102.055 -198.375 101.375 C-199.24125 101.00375 -199.24125 101.00375 -200.125 100.625 C-202.70439979 99.19200012 -204.43621592 97.59075324 -206.375 95.375 C-206.375 94.715 -206.375 94.055 -206.375 93.375 C-206.973125 93.08625 -207.57125 92.7975 -208.1875 92.5 C-210.375 91.375 -210.375 91.375 -213.375 89.375 C-215.05646878 90.00339874 -216.72128745 90.67681877 -218.375 91.375 C-225.54892772 92.07423093 -232.11862131 92.15489546 -238.375 88.375 C-245.49857242 82.06092445 -247.6825027 76.81483164 -248.375 67.375 C-247.85111358 60.76511389 -244.76665912 54.83499223 -240.1875 50.125 C-234.3673171 46.50355286 -228.25769502 44.62416054 -221.375 45.375 C-214.49791534 47.22858922 -208.51426723 50.17799914 -204.5 56.25 C-200.97875248 63.07737058 -201.15187084 71.44517438 -203.40234375 78.67578125 C-203.72332031 79.56652344 -204.04429687 80.45726563 -204.375 81.375 C-204.375 82.035 -204.375 82.695 -204.375 83.375 C-203.79975586 83.62427246 -203.22451172 83.87354492 -202.63183594 84.13037109 C-200.05089928 85.55373923 -198.33287763 87.19048786 -196.265625 89.2890625 C-195.51152344 90.04960938 -194.75742188 90.81015625 -193.98046875 91.59375 C-193.20316406 92.3878125 -192.42585938 93.181875 -191.625 94 C-190.83222656 94.80179687 -190.03945312 95.60359375 -189.22265625 96.4296875 C-187.26885507 98.40702846 -185.31987897 100.38888909 -183.375 102.375 C-182.776875 102.065625 -182.17875 101.75625 -181.5625 101.4375 C-179.375 100.375 -179.375 100.375 -176.375 99.375 C-176.375 98.715 -176.375 98.055 -176.375 97.375 C-175.715 97.375 -175.055 97.375 -174.375 97.375 C-174.00375 96.50875 -174.00375 96.50875 -173.625 95.625 C-172.19200012 93.04560021 -170.59075324 91.31378408 -168.375 89.375 C-167.715 89.375 -167.055 89.375 -166.375 89.375 C-166.00375 88.50875 -166.00375 88.50875 -165.625 87.625 C-164.19200012 85.04560021 -162.59075324 83.31378408 -160.375 81.375 C-159.715 81.375 -159.055 81.375 -158.375 81.375 C-158.00375 80.50875 -158.00375 80.50875 -157.625 79.625 C-156.19200012 77.04560021 -154.59075324 75.31378408 -152.375 73.375 C-151.715 73.375 -151.055 73.375 -150.375 73.375 C-149.99214844 72.48554688 -149.99214844 72.48554688 -149.6015625 71.578125 C-147.62351091 68.02519157 -144.48545205 65.90944241 -141.375 63.375 C-145.90491796 57.93766945 -150.71794216 52.91041069 -155.75 47.9375 C-156.48605469 47.20595703 -157.22210938 46.47441406 -157.98046875 45.72070312 C-159.77636074 43.93647277 -161.57455985 42.15463876 -163.375 40.375 C-164.05481934 40.58721191 -164.73463867 40.79942383 -165.43505859 41.01806641 C-166.77818115 41.43064697 -166.77818115 41.43064697 -168.1484375 41.8515625 C-169.03450684 42.12564941 -169.92057617 42.39973633 -170.83349609 42.68212891 C-177.21099979 44.42077977 -182.63761565 43.38459061 -188.375 40.375 C-194.42887852 36.27866304 -197.83243067 31.6007195 -199.375 24.375 C-200.14392244 16.50833195 -198.58123702 10.65283786 -194.1875 4.125 C-188.64402329 -1.29528834 -184.17572925 -2.87470922 -176.375 -3.125 C-169.40864377 -2.89427666 -164.72302246 -1.79285982 -159.6328125 3.0234375 C-155.0927562 7.99794894 -153.08921112 12.36077159 -153.125 19.1875 C-153.11726563 20.65123047 -153.11726563 20.65123047 -153.109375 22.14453125 C-153.375 25.375 -153.375 25.375 -154.20263672 27.15771484 C-155.21702627 29.48198746 -155.6130401 30.83011996 -155.375 33.375 C-152.45385591 37.59113721 -148.75937589 40.92870852 -145 44.375 C-143.97691698 45.34790015 -142.95605352 46.32314006 -141.9375 47.30078125 C-139.44180525 49.68649588 -136.9171465 52.03873379 -134.375 54.375 C-133.75625 53.88 -133.1375 53.385 -132.5 52.875 C-130.375 51.375 -130.375 51.375 -128.375 51.375 C-128.375 50.715 -128.375 50.055 -128.375 49.375 C-127.715 49.375 -127.055 49.375 -126.375 49.375 C-126.00375 48.50875 -126.00375 48.50875 -125.625 47.625 C-124.19200012 45.04560021 -122.59075324 43.31378408 -120.375 41.375 C-119.715 41.375 -119.055 41.375 -118.375 41.375 C-118.00375 40.50875 -118.00375 40.50875 -117.625 39.625 C-116.19200012 37.04560021 -114.59075324 35.31378408 -112.375 33.375 C-111.715 33.375 -111.055 33.375 -110.375 33.375 C-110.16875 32.818125 -109.9625 32.26125 -109.75 31.6875 C-108.20407381 29.08753323 -106.3186545 27.52704419 -103.94921875 25.6796875 C-102.11851147 24.22948747 -102.11851147 24.22948747 -99.875 21.5625 C-97.375 19.375 -97.375 19.375 -94.4375 18.6875 C-90.23162913 19.63167509 -87.89363862 21.92750175 -85.375 25.375 C-85.375 26.035 -85.375 26.695 -85.375 27.375 C-84.59125 26.715 -83.8075 26.055 -83 25.375 C-80.375 23.375 -80.375 23.375 -78.375 23.375 C-78.00375 22.4778125 -78.00375 22.4778125 -77.625 21.5625 C-76.13888147 18.96179257 -74.99550161 17.83083423 -72.375 16.375 C-69.125 16.1875 -69.125 16.1875 -66.375 16.375 C-65.125 23 -65.125 23 -67.375 26.375 C-68.035 26.375 -68.695 26.375 -69.375 26.375 C-69.375 27.035 -69.375 27.695 -69.375 28.375 C-70.035 28.375 -70.695 28.375 -71.375 28.375 C-72.035 29.695 -72.695 31.015 -73.375 32.375 C-74.035 32.375 -74.695 32.375 -75.375 32.375 C-74.90119056 36.63928496 -72.33602273 38.48990093 -69.375 41.375 C-69.375 42.035 -69.375 42.695 -69.375 43.375 C-68.7975 43.6225 -68.22 43.87 -67.625 44.125 C-65.04560021 45.55799988 -63.31378408 47.15924676 -61.375 49.375 C-61.375 50.035 -61.375 50.695 -61.375 51.375 C-58.72761084 52.8356285 -57.48051666 53.375 -54.375 53.375 C-52.30596401 51.69007091 -52.30596401 51.69007091 -50.21484375 49.4375 C-49.42142578 48.62539062 -48.62800781 47.81328125 -47.81054688 46.9765625 C-46.98619141 46.11804688 -46.16183594 45.25953125 -45.3125 44.375 C-43.68031403 42.6831154 -42.04381608 40.99537644 -40.40234375 39.3125 C-39.67781006 38.55839844 -38.95327637 37.80429688 -38.20678711 37.02734375 C-36.375 35.375 -36.375 35.375 -34.375 35.375 C-35.04905596 31.19755997 -35.04905596 31.19755997 -35.9375 27.0625 C-37.19272184 19.35185156 -36.52562053 13.08296644 -32.5625 6.25 C-24.3679031 -4.52004164 -11.82478432 -5.69341467 0 0 Z M-188.25 12.1875 C-190.55535243 16.67012973 -190.72117905 20.19391854 -189.3125 25 C-187.04291652 28.953468 -185.27548676 30.9913692 -181.375 33.375 C-177.08299237 34.16981623 -173.5802304 33.88387506 -169.5625 32.1875 C-165.75704508 29.03440878 -163.31395241 26.375791 -162.4375 21.4375 C-162.14069762 17.28226672 -162.86378015 14.79939071 -165.375 11.375 C-168.81242493 8.50543161 -172.01489478 6.62481524 -176.4375 5.8125 C-181.19784878 6.72405615 -184.77798278 8.83121668 -188.25 12.1875 Z M-24.125 10.75 C-26.73046719 14.13710735 -27.41729473 16.58549833 -27.1875 20.875 C-26.10280056 25.54755142 -24.47048444 28.18285517 -21.25 31.6875 C-17.25005649 34.03529293 -13.90994862 34.06761033 -9.375 33.375 C-5.51843527 31.61439436 -2.19971141 29.36355647 -0.5390625 25.359375 C0.80985503 19.76820957 0.73348919 16.48896608 -2.375 11.375 C-5.8382687 7.50428793 -9.14514401 6.62834244 -14.16015625 6.26953125 C-18.24212891 6.4639109 -20.99594597 8.29145754 -24.125 10.75 Z M-95.375 30.375 C-95.97006757 30.97006757 -96.56513514 31.56513514 -97.17823505 32.17823505 C-136.24382337 71.24382337 -175.30941168 110.30941168 -214.375 149.375 C-209.09892156 155.7613165 -203.31606836 161.6031141 -197.47607422 167.46679688 C-196.37807198 168.57271436 -195.28024764 169.67880849 -194.18258667 170.7850647 C-190.60200283 174.39166343 -187.01614554 177.99299401 -183.4296875 181.59375 C-182.19215386 182.83664826 -180.95462668 184.07955296 -179.71710587 185.32246399 C-174.57376042 190.4873912 -169.42899583 195.65089779 -164.28050041 200.81069183 C-156.9093952 208.19808529 -149.54695094 215.59387867 -142.19613254 223.00146055 C-137.01914879 228.21705653 -131.83269808 233.42311539 -126.63902295 238.62208986 C-123.5385926 241.72618019 -120.44251919 244.83434767 -117.35647202 247.95274353 C-114.45999101 250.87915822 -111.55202465 253.79363613 -108.63463211 256.69919968 C-107.56439915 257.76921079 -106.49846484 258.8435407 -105.43711853 259.9223671 C-103.99183543 261.39015697 -102.53211939 262.84185005 -101.06759644 264.29040527 C-100.25315001 265.10816185 -99.43870358 265.92591843 -98.59957695 266.76845551 C-96.53067482 268.6044728 -96.53067482 268.6044728 -94.14421272 268.31778717 C-92.01553143 267.44411693 -92.01553143 267.44411693 -91.375 264.375 C-90.385 264.045 -89.395 263.715 -88.375 263.375 C-88.375 262.715 -88.375 262.055 -88.375 261.375 C-87.4159375 260.9728125 -87.4159375 260.9728125 -86.4375 260.5625 C-84.04368314 259.48832248 -84.04368314 259.48832248 -83.375 256.375 C-82.385 256.045 -81.395 255.715 -80.375 255.375 C-80.375 254.715 -80.375 254.055 -80.375 253.375 C-79.4159375 252.9728125 -79.4159375 252.9728125 -78.4375 252.5625 C-76.04368314 251.48832248 -76.04368314 251.48832248 -75.375 248.375 C-74.385 248.045 -73.395 247.715 -72.375 247.375 C-72.375 246.715 -72.375 246.055 -72.375 245.375 C-71.4159375 244.9728125 -71.4159375 244.9728125 -70.4375 244.5625 C-68.04368314 243.48832248 -68.04368314 243.48832248 -67.375 240.375 C-66.05799066 239.67663863 -64.72183264 239.01395545 -63.375 238.375 C-61.50959074 236.79632734 -61.50959074 236.79632734 -59.69555664 234.92260742 C-58.99125015 234.21814987 -58.28694366 233.51369232 -57.56129456 232.78788757 C-56.81016891 232.02643936 -56.05904327 231.26499115 -55.28515625 230.48046875 C-54.50361679 229.6960994 -53.72207733 228.91173004 -52.91685486 228.10359192 C-50.41900182 225.59455151 -47.92817891 223.07866023 -45.4375 220.5625 C-43.76413324 218.87909855 -42.09031021 217.19615052 -40.41601562 215.51367188 C-37.33578079 212.41711176 -34.25818786 209.31797882 -31.18383789 206.21557617 C-29.91429493 204.93531502 -28.64468958 203.65511574 -27.375 202.375 C-26.86100143 201.85617752 -26.34700287 201.33735504 -25.81742859 200.80281067 C-23.65172122 198.62446322 -21.48818145 196.57414113 -19.0625 194.6875 C-17.7321875 193.5428125 -17.7321875 193.5428125 -16.375 192.375 C-16.375 191.715 -16.375 191.055 -16.375 190.375 C-15.715 190.375 -15.055 190.375 -14.375 190.375 C-14.375 189.715 -14.375 189.055 -14.375 188.375 C-13.715 188.375 -13.055 188.375 -12.375 188.375 C-10.740311 186.72051316 -10.740311 186.72051316 -9.0625 184.625 C-6.37548163 181.45398453 -3.63991816 178.95256697 -0.375 176.375 C1.31232277 174.39239574 2.97866057 172.3917658 4.625 170.375 C7.18112636 167.68779024 9.7449811 165.27751536 12.625 162.9375 C15.76001227 160.25967702 18.03920165 157.57322427 20.625 154.375 C21.94043863 153.02400897 23.26675118 151.68294331 24.625 150.375 C20.61654591 145.57352861 16.43225648 141.0335548 12.00878906 136.61352539 C11.3771434 135.97852112 10.74549774 135.34351685 10.0947113 134.68927002 C8.02929693 132.61444079 5.96021176 130.5433231 3.890625 128.47265625 C2.44660247 127.02541783 1.00265423 125.57810528 -0.44122314 124.13072205 C-3.4552993 121.11068079 -6.47141228 118.09269064 -9.48876953 115.07592773 C-13.36330063 111.20149887 -17.23087214 107.32020079 -21.09676743 103.43715763 C-24.07009155 100.45275221 -27.04791168 97.47286507 -30.0270462 94.49426079 C-31.45606174 93.06406215 -32.88344901 91.63223472 -34.30919647 90.19877815 C-36.29356833 88.20467164 -38.28409921 86.21692613 -40.27636719 84.23071289 C-41.16313896 83.33551186 -41.16313896 83.33551186 -42.06782532 82.42222595 C-44.72357845 79.37538264 -44.72357845 79.37538264 -48.375 78.375 C-48.6225 77.7975 -48.87 77.22 -49.125 76.625 C-50.55799988 74.04560021 -52.15924676 72.31378408 -54.375 70.375 C-55.035 70.375 -55.695 70.375 -56.375 70.375 C-56.6225 69.7975 -56.87 69.22 -57.125 68.625 C-58.55799988 66.04560021 -60.15924676 64.31378408 -62.375 62.375 C-63.035 62.375 -63.695 62.375 -64.375 62.375 C-64.6225 61.7975 -64.87 61.22 -65.125 60.625 C-66.55799988 58.04560021 -68.15924676 56.31378408 -70.375 54.375 C-71.035 54.375 -71.695 54.375 -72.375 54.375 C-72.6225 53.7975 -72.87 53.22 -73.125 52.625 C-74.55799988 50.04560021 -76.15924676 48.31378408 -78.375 46.375 C-79.035 46.375 -79.695 46.375 -80.375 46.375 C-80.74625 45.50875 -80.74625 45.50875 -81.125 44.625 C-82.55799988 42.04560021 -84.15924676 40.31378408 -86.375 38.375 C-87.035 38.375 -87.695 38.375 -88.375 38.375 C-88.601875 37.7975 -88.82875 37.22 -89.0625 36.625 C-90.70302461 33.8126721 -92.81278814 32.34529539 -95.375 30.375 Z M-237.25 61.5625 C-238.86790766 65.60726916 -239.28318812 69.0904028 -238.375 73.375 C-236.26472331 77.09612122 -233.59590009 79.60390521 -230 81.875 C-225.19650164 82.78995207 -221.04241263 82.07901867 -216.5625 80.1875 C-212.72005068 77.00375628 -211.52489372 73.77400809 -211 68.875 C-211.57002723 63.55474589 -213.02769108 60.59399378 -217 57 C-224.9229775 53.18523306 -231.50646006 54.86170341 -237.25 61.5625 Z M24.625 59.375 C21.49260193 63.71993926 21.24979162 67.13710769 22.05078125 72.26171875 C23.18509603 76.43630578 25.63148085 78.5962958 28.9375 81.1875 C32.48232846 82.75381955 34.77448097 82.83971781 38.625 82.375 C43.44828773 80.49473529 45.80536657 78.77218958 48.25 74.1875 C49.97236209 69.70788013 49.58080426 66.70418761 47.75390625 62.32421875 C45.51091341 58.45136953 42.77808228 56.75936076 38.625 55.375 C32.57017233 54.87870265 29.3702471 55.18152582 24.625 59.375 Z M-234.72265625 220.75 C-238.08673324 224.79813721 -239.05993546 228.05602748 -238.73046875 233.30078125 C-238.02534708 237.4152824 -236.0214183 239.65022797 -233.3125 242.6875 C-229.10240652 245.10606434 -225.1327043 245.04030499 -220.375 244.375 C-218.13331347 243.43008372 -218.13331347 243.43008372 -216.375 242.375 C-216.375 241.715 -216.375 241.055 -216.375 240.375 C-215.715 240.375 -215.055 240.375 -214.375 240.375 C-211.71825498 235.83639393 -210.71771971 232.6332423 -211.375 227.375 C-213.95077324 222.75637213 -216.2942079 219.06859737 -221.375 217.375 C-228.77662186 216.88988765 -228.77662186 216.88988765 -234.72265625 220.75 Z M26.625 219.375 C23.55628843 222.99472331 21.8053427 226.23282956 21.0625 230.9375 C21.92036534 236.18001042 23.75930088 239.76842576 27.875 243.3125 C32.8644193 245.24023018 36.94899045 244.95515715 41.875 243.25 C45.86872757 240.52700393 47.84109693 237.41314798 49.5625 232.9375 C49.68751481 227.81189277 47.38565323 224.22841581 44.0625 220.5 C39.24856621 216.3032372 32.05445311 215.85319258 26.625 219.375 Z M-24.1875 271.0625 C-26.9738857 275.28188406 -27.375 277.33205262 -27.375 282.375 C-25.75537431 287.05391866 -23.65223925 289.86444653 -19.375 292.375 C-15.00566825 293.55415423 -11.48330723 293.69470401 -7.125 292.4375 C-2.96270691 289.31578018 0.15730058 285.61197231 0.921875 280.3203125 C0.66336063 275.57472732 -1.2516982 272.20134516 -4.5 268.796875 C-11.6544309 263.37143156 -18.06514092 265.21224577 -24.1875 271.0625 Z M-187.25 271.125 C-189.67655037 274.83619469 -190.375 276.95085556 -190.375 281.375 C-189.06625509 285.30123472 -187.841812 288.93539155 -184.375 291.375 C-179.68602288 293.50635324 -176.36010108 293.62127527 -171.375 292.375 C-166.53488296 289.8618623 -164.19661345 287.53623812 -162.375 282.375 C-161.69001238 278.67606687 -161.71074358 276.48410693 -163.6640625 273.22265625 C-166.96701902 269.05248512 -170.04188774 266.22260313 -175.39453125 265.36328125 C-180.52571894 265.39364331 -183.66988666 267.70054376 -187.25 271.125 Z " fill="#ECE7AD" transform="translate(315.375,29.625)"/>
<path d="M0 0 C2.64376916 2.06124375 4.64661358 4.1973181 6.5 7 C6.5 7.66 6.5 8.32 6.5 9 C7.19738281 8.67902344 7.89476562 8.35804688 8.61328125 8.02734375 C14.59851334 5.89728145 21.36760778 5.97700551 27.39453125 7.9453125 C32.18602882 10.22971464 36.14832879 12.81041099 39.5 17 C39.74492187 17.85464844 39.98984375 18.70929688 40.2421875 19.58984375 C40.65726562 20.38519531 41.07234375 21.18054688 41.5 22 C44.32310194 22.90011443 44.32310194 22.90011443 47.625 23.0625 C56.13413779 24.07683431 61.87733437 26.34158018 67.5 33 C74.11820725 41.76376073 76.42652827 49.3623655 75.2578125 60.2578125 C73.85127187 68.49612193 69.15446884 75.52403873 62.55741119 80.61994171 C55.45834759 85.38181022 48.26856669 86.5905577 39.88476562 86.51757812 C38.87524338 86.5245874 37.86572113 86.53159668 36.8256073 86.53881836 C33.51886744 86.55629214 30.21299718 86.54481302 26.90625 86.53125 C24.59037107 86.53394795 22.27449324 86.53783289 19.95861816 86.54284668 C15.11699586 86.54872738 10.27566977 86.54022458 5.43408203 86.52148438 C-0.75282117 86.49869614 -6.93903013 86.51182684 -13.1259079 86.53577423 C-17.90449191 86.55027064 -22.68291299 86.54560854 -27.46150208 86.53526306 C-29.74192895 86.53260641 -32.02237091 86.5358279 -34.30278015 86.54518127 C-37.49717042 86.55541003 -40.69045695 86.53975673 -43.88476562 86.51757812 C-45.28001213 86.52972351 -45.28001213 86.52972351 -46.70344543 86.54211426 C-55.60257407 86.42841008 -65.10531824 83.50858195 -71.5 77 C-73.42940154 74.11341484 -75.01053876 71.13279245 -76.5 68 C-76.83 67.34 -77.16 66.68 -77.5 66 C-77.65176841 63.42285563 -77.73140137 60.89073522 -77.75 58.3125 C-77.770625 57.61705078 -77.79125 56.92160156 -77.8125 56.20507812 C-77.86843148 48.71725182 -75.14584963 42.90148467 -70.5 37 C-65.35558411 32.10111305 -60.51006009 29.94116547 -53.5 29 C-53.561875 27.906875 -53.62375 26.81375 -53.6875 25.6875 C-53.64218687 17.15352758 -51.16222711 10.04186089 -45.90234375 3.36328125 C-44.5 2 -44.5 2 -42.5 2 C-42.17 1.01 -41.84 0.02 -41.5 -1 C-28.93295684 -10.00851818 -12.15392496 -8.78650722 0 0 Z M-40.0625 12.125 C-42.49635465 15.66891301 -43.59061131 18.72161497 -43.81640625 23.01171875 C-43.85830078 23.76904297 -43.90019531 24.52636719 -43.94335938 25.30664062 C-43.98267578 26.09232422 -44.02199219 26.87800781 -44.0625 27.6875 C-44.10568359 28.48478516 -44.14886719 29.28207031 -44.19335938 30.10351562 C-44.29927368 32.06881447 -44.40012551 34.03438496 -44.5 36 C-45.89412109 36.32871094 -45.89412109 36.32871094 -47.31640625 36.6640625 C-56.11323898 38.92060145 -62.08525445 41.15326438 -67.4375 48.75 C-69.39538803 54.73883397 -69.49718208 60.50859071 -66.875 66.3125 C-63.31094407 72.47198342 -58.5408205 75.28112812 -51.95567131 77.38417625 C-48.04852815 78.36399449 -44.29376437 78.41049573 -40.28344727 78.37231445 C-39.41062103 78.37596512 -38.5377948 78.37961578 -37.63851929 78.38337708 C-34.78094429 78.39141893 -31.92394789 78.37792455 -29.06640625 78.36328125 C-27.0629832 78.36276183 -25.05955963 78.36328269 -23.05613708 78.36479187 C-18.86766906 78.36470243 -14.67939462 78.35433109 -10.4909668 78.33618164 C-5.1438233 78.31351047 0.2030374 78.31295088 5.55021572 78.31969929 C9.68453956 78.32305406 13.81879989 78.31638059 17.95311165 78.30657005 C19.92372365 78.30274266 21.89434274 78.30155954 23.86495781 78.3031559 C26.6281243 78.30353017 29.39093947 78.2908055 32.15405273 78.2746582 C33.3552903 78.27837433 33.3552903 78.27837433 34.58079529 78.28216553 C44.84084028 78.1873224 52.29454167 76.47911531 60.1875 69.6875 C64.75103318 64.38393441 66.04917248 59.32650026 65.76953125 52.48046875 C64.91783986 44.64243932 61.77874826 40.77651482 55.8515625 35.6640625 C51.12651975 32.3204276 47.43939218 31.75880016 41.6875 31.875 C40.52605469 31.89304687 39.36460937 31.91109375 38.16796875 31.9296875 C36.84732422 31.96449219 36.84732422 31.96449219 35.5 32 C35.2215625 31.07960938 34.943125 30.15921875 34.65625 29.2109375 C33.19082961 25.14142547 31.46213559 23.11024236 28.5 20 C27.84 20 27.18 20 26.5 20 C26.5 19.34 26.5 18.68 26.5 18 C20.09269572 16.07187603 15.861962 15.80622 9.5 18 C8.51 18.66 7.52 19.32 6.5 20 C3.9375 19.9375 3.9375 19.9375 1.5 19 C0.1875 16.4375 0.1875 16.4375 -0.5 14 C-1.16 14 -1.82 14 -2.5 14 C-2.809375 13.1646875 -2.809375 13.1646875 -3.125 12.3125 C-5.97812426 7.51406374 -10.30373365 4.73982132 -15.5 3 C-25.32929993 1.56561675 -33.88196227 4.14916322 -40.0625 12.125 Z " fill="#F1EFB5" transform="translate(221.5,128)"/>
</svg>
